<?xml version="1.0" encoding="UTF-8"?>
<svg version="1.1" xmlns="http://www.w3.org/2000/svg" width="512" height="512">
<path d="M0 0 C16.0239885 13.33154019 23.85302128 32.60540854 26.39453125 52.9921875 C27.24444477 69.9822518 27.92317764 87.71966367 22.39453125 103.9921875 C22.17490723 104.65831055 21.9552832 105.32443359 21.72900391 106.01074219 C18.84327364 114.52701623 15.09478336 122.00704249 9.39453125 128.9921875 C8.70359375 129.84554687 8.01265625 130.69890625 7.30078125 131.578125 C2.29043166 137.45293632 -3.08243814 141.87954607 -9.60546875 145.9921875 C-9.23035156 146.57484375 -8.85523438 147.1575 -8.46875 147.7578125 C6.17278742 171.21377673 10.50447047 200.71535077 10.64453125 227.9921875 C10.67546875 229.54486328 10.67546875 229.54486328 10.70703125 231.12890625 C10.71476562 232.60810547 10.71476562 232.60810547 10.72265625 234.1171875 C10.73200195 235.00664062 10.74134766 235.89609375 10.75097656 236.8125 C10.63334961 237.53179687 10.51572266 238.25109375 10.39453125 238.9921875 C7.3291318 241.03578713 6.71601394 241.24317016 3.26429749 241.25288391 C2.42453873 241.25996872 1.58477997 241.26705353 0.71957397 241.27435303 C-0.65743179 241.2706369 -0.65743179 241.2706369 -2.06225586 241.2668457 C-3.51631081 241.2745121 -3.51631081 241.2745121 -4.9997406 241.28233337 C-8.210827 241.29625739 -11.42169946 241.29527049 -14.6328125 241.29296875 C-16.86096782 241.29685411 -19.08912239 241.30118844 -21.317276 241.30595398 C-25.99043172 241.31342222 -30.66351189 241.3131205 -35.33666992 241.30786133 C-41.33031225 241.30206565 -47.32364566 241.31899733 -53.3172369 241.342206 C-57.91970127 241.35692547 -62.52209093 241.35781748 -67.12457466 241.35469627 C-69.33460667 241.35521038 -71.54464277 241.36046471 -73.75465202 241.37050819 C-76.84306894 241.38282061 -79.93088016 241.37611196 -83.01928711 241.36450195 C-83.93526672 241.37214569 -84.85124634 241.37978943 -85.79498291 241.38766479 C-91.92508773 241.33663279 -91.92508773 241.33663279 -95.17359924 239.69206238 C-97.6008675 236.81047833 -97.14485728 233.44947067 -97.04296875 229.8671875 C-97.02903076 229.03678955 -97.01509277 228.2063916 -97.00073242 227.35083008 C-96.23397337 200.14462031 -91.30739158 173.1926931 -78.60546875 148.9921875 C-77.93715507 147.65967894 -77.27025082 146.32646147 -76.60546875 144.9921875 C-77.92160156 145.03859375 -79.23773438 145.085 -80.59375 145.1328125 C-93.10472849 145.44475353 -103.66285061 145.07175867 -113.76953125 136.80078125 C-130.70671649 120.11585196 -134.25967457 94.12595676 -134.64892578 71.46191406 C-134.56461508 46.77375602 -128.11314763 21.6370041 -110.953125 3.1875 C-82.60532283 -23.32076093 -30.33382635 -23.53869394 0 0 Z M-86.60546875 28.9921875 C-93.54345094 34.34631271 -98.76903039 40.21282136 -100.60546875 48.9921875 C-100.70891633 50.60779303 -100.76357074 52.22689943 -100.7824707 53.84570312 C-100.79530594 54.8077063 -100.80814117 55.76970947 -100.82136536 56.76086426 C-100.82875229 57.79626343 -100.83613922 58.8316626 -100.84375 59.8984375 C-100.85182175 60.97411987 -100.85989349 62.04980225 -100.86820984 63.15808105 C-100.88203844 65.43772782 -100.89276606 67.71739518 -100.90063477 69.99707031 C-100.91212003 72.31288785 -100.93251649 74.62867963 -100.9621582 76.94433594 C-101.00515355 80.30421805 -101.02105143 83.66331325 -101.03125 87.0234375 C-101.04875809 88.04264282 -101.06626617 89.06184814 -101.08430481 90.11193848 C-101.04473011 103.46625391 -95.9399031 115.64381029 -86.73046875 125.3046875 C-77.44463881 134.01234313 -65.45826256 139.10745919 -52.60546875 138.9921875 C-39.3018505 138.33819333 -26.72532218 132.84714247 -17.60546875 122.9921875 C-17.08670166 122.47382324 -16.56793457 121.95545898 -16.03344727 121.42138672 C-13.95401007 117.8839615 -14.17678752 114.43830711 -14.20703125 110.44921875 C-14.20416107 109.60735519 -14.20129089 108.76549164 -14.19833374 107.89811707 C-14.19629241 106.11021251 -14.2018271 104.32228565 -14.21435547 102.53442383 C-14.23014817 99.85899627 -14.21464718 97.18514068 -14.1953125 94.50976562 C-13.93340544 72.03082217 -13.93340544 72.03082217 -22.60546875 51.9921875 C-26.17640233 50.35192374 -29.76515541 49.39348357 -33.5859375 48.51171875 C-51.68568545 44.2306142 -68.51339961 39.50694267 -84.60546875 29.9921875 C-85.26546875 29.6621875 -85.92546875 29.3321875 -86.60546875 28.9921875 Z M-44.60546875 148.9921875 C-47.24546875 149.3221875 -49.88546875 149.6521875 -52.60546875 149.9921875 C-51.94546875 151.3121875 -51.28546875 152.6321875 -50.60546875 153.9921875 C-48.18901093 154.15906198 -48.18901093 154.15906198 -45.60546875 153.9921875 C-44.94546875 153.3321875 -44.28546875 152.6721875 -43.60546875 151.9921875 C-43.93546875 151.0021875 -44.26546875 150.0121875 -44.60546875 148.9921875 Z " fill="#000000" transform="translate(485.60546875,181.0078125)"/>
<path d="M0 0 C2.47938088 2.1685105 4.77806016 4.41769688 7.0546875 6.796875 C7.75980469 7.48265625 8.46492187 8.1684375 9.19140625 8.875 C22.84673128 22.92047717 25.60107825 40.6140696 25.3671875 59.484375 C25.36929959 60.84049705 25.37255068 62.19661782 25.37695312 63.55273438 C25.32246535 73.39520823 25.32246535 73.39520823 23.0546875 76.796875 C20.890625 77.08984375 20.890625 77.08984375 18.4296875 76.984375 C17.61242187 76.95730469 16.79515625 76.93023437 15.953125 76.90234375 C15.01339844 76.85013672 15.01339844 76.85013672 14.0546875 76.796875 C14.07825317 77.83859863 14.07825317 77.83859863 14.10229492 78.90136719 C14.16551884 82.11645009 14.20395141 85.33140152 14.2421875 88.546875 C14.26732422 89.63871094 14.29246094 90.73054688 14.31835938 91.85546875 C14.4664308 108.53818267 8.94573136 122.44727265 -2.609375 134.57421875 C-15.45497858 146.796875 -15.45497858 146.796875 -21.9453125 146.796875 C-21.18347656 148.21613281 -21.18347656 148.21613281 -20.40625 149.6640625 C-7.09054538 175.0061218 -2.10230809 202.82425388 -1.5703125 231.296875 C-1.54420898 232.10463379 -1.51810547 232.91239258 -1.49121094 233.74462891 C-1.47469046 239.23296738 -1.47469046 239.23296738 -3.37498474 241.50993347 C-7.34580412 243.49808939 -11.15023505 243.20575052 -15.53149414 243.16918945 C-16.98817757 243.17466545 -16.98817757 243.17466545 -18.47428894 243.18025208 C-21.68485998 243.18835934 -24.89492665 243.1747467 -28.10546875 243.16015625 C-30.33458964 243.15963771 -32.56371099 243.16015518 -34.79283142 243.16166687 C-39.46425199 243.16157714 -44.13549999 243.1511454 -48.80688477 243.13305664 C-54.8016715 243.11035644 -60.79620632 243.10982772 -66.79102421 243.11657429 C-71.3934504 243.11991173 -75.99581891 243.11328862 -80.59823418 243.10344505 C-82.80908341 243.09958987 -85.01993906 243.09844615 -87.23079109 243.1000309 C-90.31682749 243.10040076 -93.40253785 243.08780384 -96.48852539 243.0715332 C-97.40652924 243.07401062 -98.32453308 243.07648804 -99.27035522 243.07904053 C-100.11011398 243.07195572 -100.94987274 243.06487091 -101.81507874 243.05757141 C-102.54455247 243.05551854 -103.2740262 243.05346567 -104.0256052 243.05135059 C-105.9453125 242.796875 -105.9453125 242.796875 -108.9453125 240.796875 C-109.33349609 238.83935547 -109.33349609 238.83935547 -109.34375 236.4140625 C-109.34995361 235.50640137 -109.35615723 234.59874023 -109.36254883 233.66357422 C-109.34861084 232.67631348 -109.33467285 231.68905273 -109.3203125 230.671875 C-109.31088623 229.64723145 -109.30145996 228.62258789 -109.29174805 227.56689453 C-108.73514597 198.43287848 -104.0904556 162.63017365 -82.9453125 140.796875 C-84.27818226 137.78653988 -85.68950564 135.92049166 -88.1328125 133.734375 C-93.23602726 128.80233725 -97.69102311 122.55974316 -99.9453125 115.796875 C-101.9773586 114.98422744 -101.9773586 114.98422744 -104.4453125 114.484375 C-112.82283922 112.15928175 -118.74487182 108.24348411 -123.0703125 100.62890625 C-125.20536255 96.15864521 -125.19930463 91.89912782 -125.2578125 87.046875 C-125.28681641 86.26054687 -125.31582031 85.47421875 -125.34570312 84.6640625 C-125.40006029 79.6297525 -124.64696361 77.19495748 -121.85620117 72.90576172 C-119.71807849 67.95558651 -120.44161172 62.03288545 -120.4453125 56.734375 C-120.08244998 36.16325284 -115.52771459 22.67337595 -100.9453125 7.796875 C-100.29175781 7.10722656 -99.63820313 6.41757813 -98.96484375 5.70703125 C-73.17459115 -19.48460813 -28.50062891 -21.31877282 0 0 Z M-20.3828125 49.796875 C-21.90244406 51.13157786 -23.42334478 52.46483669 -24.9453125 53.796875 C-25.66847656 54.43367188 -26.39164062 55.07046875 -27.13671875 55.7265625 C-38.93829557 65.6710384 -55.42546174 75.89566116 -71.3203125 76.171875 C-74.9453125 75.796875 -74.9453125 75.796875 -75.9453125 74.796875 C-76.17818258 73.11503552 -76.35795416 71.4256334 -76.5078125 69.734375 C-76.63349609 68.35572266 -76.63349609 68.35572266 -76.76171875 66.94921875 C-76.82230469 66.23894531 -76.88289063 65.52867187 -76.9453125 64.796875 C-84.22804266 67.78609515 -84.22804266 67.78609515 -89.53125 73.31640625 C-90.49624629 75.79419747 -91.28100104 78.22377528 -91.9453125 80.796875 C-92.2753125 81.786875 -92.6053125 82.776875 -92.9453125 83.796875 C-93.63083067 97.96425045 -91.12808403 111.54618631 -81.921875 122.6328125 C-73.30543165 132.06662597 -62.92352987 139.42837722 -49.74609375 140.1328125 C-33.68240581 140.45799556 -22.14091638 136.56738604 -10.1953125 125.484375 C1.41487315 113.21700903 3.23043313 98.44737728 3.2421875 82.296875 C3.25443359 81.41128906 3.26667969 80.52570313 3.27929688 79.61328125 C3.29971612 70.34294418 2.23837071 63.19406012 -3.796875 55.94921875 C-7.4264401 52.31305444 -11.53867788 49.42228375 -15.9453125 46.796875 C-17.79791697 46.796875 -19.07382615 48.61694365 -20.3828125 49.796875 Z M-111.9453125 78.796875 C-114.43877421 82.53706756 -114.58781081 86.46392909 -113.9453125 90.796875 C-112.35517833 95.39514957 -110.38247353 99.43038912 -105.9453125 101.796875 C-105.2853125 101.796875 -104.6253125 101.796875 -103.9453125 101.796875 C-103.07113424 92.94408564 -103.75077114 87.59963564 -109.31640625 80.52734375 C-109.85394531 79.95628906 -110.39148438 79.38523437 -110.9453125 78.796875 C-111.2753125 78.796875 -111.6053125 78.796875 -111.9453125 78.796875 Z M-54.9453125 150.796875 C-54.37405896 154.53962712 -54.37405896 154.53962712 -52.9453125 155.796875 C-51.27914135 155.83751332 -49.61143155 155.839596 -47.9453125 155.796875 C-47.2853125 154.476875 -46.6253125 153.156875 -45.9453125 151.796875 C-48.9153125 151.466875 -51.8853125 151.136875 -54.9453125 150.796875 Z " fill="#000000" transform="translate(124.9453125,179.203125)"/>
<path d="M0 0 C1.30398239 -0.00983414 2.60796478 -0.01966827 3.95146179 -0.02980042 C5.39981339 -0.02042804 6.8481624 -0.01064871 8.29650879 -0.00050354 C9.819163 -0.00428582 11.34181378 -0.00978511 12.86445618 -0.01687622 C17.0029235 -0.03086021 21.14097646 -0.01964067 25.27942085 -0.00316501 C29.60620592 0.01066528 33.93296644 0.00422773 38.25976562 0.0007019 C45.52647597 -0.00200183 52.7930213 0.01148931 60.05969238 0.03465271 C68.46616104 0.06126352 76.87235374 0.06301018 85.27885008 0.05126435 C93.35893511 0.04049259 101.43892011 0.04666888 109.51899719 0.06081963 C112.96074278 0.06658468 116.4024153 0.06649269 119.84416199 0.06175423 C123.89568078 0.05698887 127.94689663 0.06706754 131.99835777 0.08870888 C133.48709275 0.09428299 134.97585681 0.09473632 136.46459389 0.08975601 C138.49308566 0.08382008 140.52160689 0.098118 142.55004883 0.11352539 C143.68641029 0.11595529 144.82277176 0.11838518 145.99356842 0.12088871 C148.77502441 0.50120544 148.77502441 0.50120544 150.6431675 1.84443855 C153.43623522 5.93281939 151.62348598 11.70986813 150.80142212 16.25137329 C150.34786054 18.55761627 149.88688646 20.86240907 149.42004395 23.16600037 C149.1696637 24.42856155 148.91928345 25.69112274 148.66131592 26.99194336 C147.97736358 30.43923687 147.28498992 33.88478804 146.59073114 37.33001876 C145.8641424 40.941452 145.14430242 44.55423108 144.4234314 48.16680908 C143.2125524 54.22935145 141.99614895 60.2907657 140.77648926 66.35154724 C139.36705855 73.3557205 137.96659667 80.36164208 136.57086098 87.3685562 C135.22638497 94.11697299 133.87540177 100.86407148 132.52151108 107.61060524 C131.94603355 110.47889933 131.37287161 113.34764171 130.80157852 116.21677208 C130.00397355 120.22073695 129.19688187 124.22273177 128.38879395 128.22459412 C128.03490097 130.0099205 128.03490097 130.0099205 127.67385864 131.83131409 C127.45234131 132.92053665 127.23082397 134.00975922 127.00259399 135.13198853 C126.81270464 136.07787433 126.62281528 137.02376013 126.42717171 137.99830914 C125.79607845 140.4204015 125.07231899 142.36405155 123.77502441 144.50120544 C120.5573655 146.1100349 117.04793512 145.64539936 113.51309204 145.64164734 C112.64849235 145.64461846 111.78389267 145.64758958 110.89309299 145.65065074 C107.97888991 145.65936317 105.06472779 145.66084812 102.1505127 145.66233826 C100.06806347 145.6669646 97.9856151 145.67198901 95.90316772 145.67738342 C90.23377722 145.69052639 84.56439857 145.69695597 78.89499521 145.70139408 C75.35614136 145.70432151 71.81729078 145.70842566 68.27843857 145.71289825 C57.2152839 145.72657764 46.15213666 145.73624237 35.08897412 145.74010015 C22.30109291 145.74458336 9.51331845 145.76214168 -3.27453029 145.79110074 C-13.14801437 145.81268699 -23.02146835 145.82280277 -32.89497578 145.82414126 C-38.79724228 145.82519141 -44.69940849 145.83114367 -50.60165024 145.84896088 C-56.15182892 145.86538895 -61.70183134 145.86762274 -67.2520256 145.85882187 C-69.29184947 145.85804869 -71.33168261 145.86243099 -73.37148285 145.87228012 C-76.15089298 145.88491595 -78.92967095 145.87916859 -81.70907593 145.86869812 C-82.92687408 145.88078273 -82.92687408 145.88078273 -84.16927421 145.89311147 C-87.44062317 145.86418316 -89.81888027 145.72037864 -92.7258625 144.15145493 C-94.97989435 141.67017788 -94.72665117 139.70995769 -94.72106934 136.40745544 C-94.72171387 135.21249451 -94.7223584 134.01753357 -94.72302246 132.78636169 C-94.70304199 131.53726013 -94.68306152 130.28815857 -94.66247559 129.00120544 C-94.66956543 127.75210388 -94.67665527 126.50300232 -94.68395996 125.21604919 C-94.61980384 116.06639958 -94.61980384 116.06639958 -93.07098389 113.84927368 C-90.43858413 111.92693427 -88.52440751 112.1405904 -85.28479004 112.16062927 C-84.06375076 112.16085587 -82.84271149 112.16108246 -81.58467102 112.16131592 C-79.606446 112.1845417 -79.606446 112.1845417 -77.58825684 112.20823669 C-76.22491421 112.21383302 -74.86156554 112.21810295 -73.49821472 112.22109985 C-69.91253966 112.23254595 -66.32723004 112.26201059 -62.74169922 112.29521179 C-59.08187809 112.32591805 -55.42199782 112.33960635 -51.76208496 112.35472107 C-44.58288203 112.38688096 -37.40398004 112.43807392 -30.22497559 112.50120544 C-30.03631424 110.58450798 -30.03631424 110.58450798 -29.84384155 108.62908936 C-29.27253196 103.50940903 -28.33995414 98.50253071 -27.32312012 93.45506287 C-27.13272156 92.49457031 -26.942323 91.53407776 -26.74615479 90.54447937 C-26.12096626 87.39767619 -25.48986202 84.25210111 -24.85778809 81.10667419 C-24.41796227 78.90952279 -23.97817403 76.71236386 -23.53842163 74.51519775 C-22.61837335 69.9244038 -21.69483753 65.33432589 -20.76940918 60.74461365 C-19.58380261 54.86084725 -18.41162289 48.97449051 -17.24258614 43.08741283 C-16.34031552 38.55558762 -15.42862795 34.02569462 -14.51430893 29.49628639 C-14.07786732 27.32603906 -13.6449162 25.15508676 -13.21551895 22.98343468 C-12.61546535 19.95365154 -12.00222166 16.92682763 -11.38562012 13.90037537 C-11.21096222 13.00317276 -11.03630432 12.10597015 -10.85635376 11.18157959 C-10.59991089 9.94333939 -10.59991089 9.94333939 -10.33828735 8.68008423 C-10.19486467 7.96540072 -10.05144199 7.25071722 -9.90367317 6.51437664 C-8.01355401 0.90785389 -5.785424 0.0010655 0 0 Z M1.77502441 11.50120544 C-1.79624773 28.16714214 -5.35869119 44.82621589 -8.74841309 61.52854919 C-8.94149677 62.47852846 -9.13458046 63.42850773 -9.33351517 64.40727425 C-10.34670465 69.39242798 -11.35818292 74.37792486 -12.36804199 79.36375427 C-13.40595396 84.48635207 -14.44992411 89.60769699 -15.49512291 94.72881222 C-16.30646919 98.70951265 -17.11350093 102.69107876 -17.9193306 106.67289925 C-18.30286715 108.56424659 -18.68801583 110.45526778 -19.07484055 112.34594536 C-19.61042036 114.9657246 -20.13988409 117.5866692 -20.66784668 120.20799255 C-20.8267337 120.97824265 -20.98562073 121.74849274 -21.14932251 122.54208374 C-21.90666837 126.33597092 -22.22497559 129.59352622 -22.22497559 133.50120544 C22.98502441 133.50120544 68.19502441 133.50120544 114.77502441 133.50120544 C118.3641064 116.75215618 121.93701238 100.01379229 125.29846191 83.21995544 C125.69340023 81.25172424 126.08839048 79.28350346 126.48342896 77.31529236 C127.29631712 73.2626205 128.10769744 69.2096503 128.91809082 65.15647888 C129.95646782 59.96438714 131.00021804 54.77339026 132.04517174 49.58261871 C132.85588549 45.55121253 133.66313133 41.51911782 134.46937943 37.48681641 C134.85329306 35.56960273 135.23844912 33.6526374 135.62488937 31.7359314 C136.15953394 29.08223083 136.68933095 26.42760708 137.21789551 23.77268982 C137.45622604 22.59789566 137.45622604 22.59789566 137.69937134 21.39936829 C138.37041991 18.0046993 138.77502441 14.97853571 138.77502441 11.50120544 C93.56502441 11.50120544 48.35502441 11.50120544 1.77502441 11.50120544 Z M-83.22497559 123.50120544 C-83.22497559 126.80120544 -83.22497559 130.10120544 -83.22497559 133.50120544 C-67.05497559 133.50120544 -50.88497559 133.50120544 -34.22497559 133.50120544 C-33.89497559 130.20120544 -33.56497559 126.90120544 -33.22497559 123.50120544 C-49.72497559 123.50120544 -66.22497559 123.50120544 -83.22497559 123.50120544 Z " fill="#000000" transform="translate(227.2249755859375,324.49879455566406)"/>
<path d="M0 0 C0.77686661 -0.0049649 1.55373322 -0.00992981 2.35414124 -0.01504517 C4.90073567 -0.02953732 7.44726775 -0.03644835 9.99389648 -0.04199219 C10.87250776 -0.04481956 11.75111904 -0.04764694 12.6563549 -0.05056 C17.30964325 -0.06550292 21.962901 -0.07476227 26.61621094 -0.07910156 C31.38113335 -0.0845672 36.1457673 -0.10856897 40.91059971 -0.13707352 C44.61104606 -0.15585841 48.31142524 -0.16091393 52.01191521 -0.16243744 C53.76629137 -0.16543081 55.52066733 -0.17334446 57.2749958 -0.18662262 C82.28821357 -0.36237501 102.75381262 5.43716691 121.42749023 22.79785156 C137.02161427 38.3150309 144.98550055 58.23186312 145.05249023 80.16113281 C145.02458824 103.26797065 137.08928168 123.01392279 120.92749023 139.53613281 C115.73832675 144.63558673 110.22398326 148.69911049 103.80249023 152.16113281 C102.95428711 152.62003906 102.10608398 153.07894531 101.23217773 153.55175781 C88.54367221 159.83919637 75.37788264 161.76812582 61.35595703 161.67871094 C59.89049592 161.68415094 58.4250403 161.69128398 56.95959473 161.69995117 C53.03677155 161.7179439 49.11437632 161.71122423 45.19154716 161.69843483 C41.06769514 161.68820562 36.94387626 161.6977254 32.82002258 161.70397949 C25.91347754 161.71121672 19.00710474 161.70176101 12.10058594 161.68261719 C4.11697771 161.66074346 -3.86622353 161.66799105 -11.84982234 161.68992281 C-18.72660348 161.7080557 -25.60326203 161.7106489 -32.48005933 161.70016813 C-36.57849804 161.69393591 -40.67674492 161.69309229 -44.77517128 161.70631409 C-48.61599817 161.71784525 -52.45629615 161.70989799 -56.29706573 161.68673706 C-57.70679787 161.68144002 -59.11657441 161.68298079 -60.52628899 161.69178772 C-62.44677536 161.70268275 -64.36735887 161.68661091 -66.28779602 161.66906738 C-67.36302678 161.66755928 -68.43825754 161.66605118 -69.54607105 161.66449738 C-72.19750977 161.16113281 -72.19750977 161.16113281 -74.06247234 159.26976776 C-75.19750977 157.16113281 -75.19750977 157.16113281 -75.26782227 154.91503906 C-73.33466206 149.94103197 -69.67150817 146.06071474 -66.32641602 141.95605469 C-65.51624023 140.92641602 -65.51624023 140.92641602 -64.68969727 139.87597656 C-64.18809082 139.25843506 -63.68648437 138.64089355 -63.16967773 138.00463867 C-61.99556673 136.19990679 -61.99556673 136.19990679 -62.43945312 134.09814453 C-63.55092836 131.25806577 -65.20595337 128.89120393 -66.88500977 126.34863281 C-79.3299071 106.68832797 -83.28570042 83.98288729 -78.23266602 61.14550781 C-73.2497846 40.89729456 -60.99376806 23.61631305 -43.56079102 12.16503906 C-29.80751031 3.97057565 -15.96390405 0.02497841 0 0 Z M-22.19750977 15.16113281 C-23.09791992 15.46129303 -23.99833008 15.76145325 -24.92602539 16.07070923 C-31.4498615 18.35855462 -36.76999884 21.9339368 -42.19750977 26.16113281 C-42.96063477 26.74636719 -43.72375977 27.33160156 -44.51000977 27.93457031 C-54.46713208 36.12845222 -61.08343763 47.02865342 -65.19750977 59.16113281 C-65.67510742 60.52238281 -65.67510742 60.52238281 -66.16235352 61.91113281 C-71.93708312 81.07152597 -67.54461966 100.24554567 -58.36938477 117.48535156 C-55.96912548 121.73827 -53.00585315 125.3922439 -49.66625977 128.95019531 C-47.65665396 131.97529341 -47.62473808 133.58578457 -48.19750977 137.16113281 C-49.6311501 139.47373121 -50.98144718 141.40456637 -52.69750977 143.47363281 C-55.67381758 146.57485102 -55.67381758 146.57485102 -57.19750977 150.16113281 C-41.28898933 150.20804107 -25.38048785 150.24321327 -9.47191525 150.26475716 C-2.08379225 150.27503024 5.30428756 150.28901381 12.69238281 150.31201172 C19.13861432 150.33206804 25.58481452 150.34487801 32.03107637 150.3493098 C35.43817205 150.35189666 38.84517822 150.35789204 42.25224495 150.37259293 C69.48286383 150.47704783 92.75795458 149.76795433 113.61499023 129.84863281 C128.64929412 114.14373408 133.59132124 96.23063569 133.17358398 75.04394531 C132.3002957 55.80674078 122.67126057 40.15982412 108.72436523 27.23535156 C93.05751652 14.15063162 75.92947865 11.68743951 56.23999023 11.76269531 C54.35774625 11.76066945 52.47550304 11.75775376 50.59326172 11.7539978 C46.66650856 11.74959857 42.73996145 11.75592757 38.81323242 11.77001953 C33.81043592 11.78710989 28.80812247 11.77725575 23.80534363 11.75930214 C19.92399536 11.74839905 16.04275934 11.75194039 12.16140747 11.75968552 C10.31804343 11.76166954 8.47466879 11.75929239 6.63131714 11.75224686 C-3.38644142 11.72234914 -12.58472212 11.95466402 -22.19750977 15.16113281 Z " fill="#000000" transform="translate(234.197509765625,41.8388671875)"/>
<path d="M0 0 C5.86275574 5.52741074 9.14685618 10.62192161 9.95703125 18.76953125 C10.11867892 27.1605147 7.28250596 34.5243202 2 41 C-5.27037761 47.47985879 -12.61872448 50.56085742 -22.3828125 50.30859375 C-29.70337632 49.44542279 -35.68598118 46.38495264 -40.59375 40.8984375 C-45.68037539 34.03149323 -45.89915682 26.31720054 -45 18 C-43.04170433 10.37663472 -38.16271158 3.65859392 -31.53515625 -0.57421875 C-21.38843162 -5.8993419 -9.71449008 -7.03948556 0 0 Z " fill="#000000" transform="translate(306,372)"/>
<path d="M0 0 C0.8098938 -0.0004985 1.6197876 -0.00099701 2.45422363 -0.00151062 C4.1656337 0.00082867 5.87704728 0.0105487 7.58837891 0.02709961 C10.20897158 0.05069321 12.82854685 0.04765958 15.44921875 0.04101562 C17.11198524 0.04659249 18.77474744 0.05370242 20.4375 0.0625 C21.22193481 0.06158859 22.00636963 0.06067719 22.8145752 0.05973816 C26.63714646 0.10959298 28.46349967 0.19311437 31.71875 2.36328125 C33.30382612 10.59584717 31.52305773 17.61760956 27.5078125 24.8203125 C24.36571038 29.28648822 20.93269839 31.62529845 15.71875 33.36328125 C9.50516607 33.87051259 3.92980927 34.15314254 -1.28125 30.36328125 C-7.42427636 24.71116628 -10.69940643 19.00142739 -11.55859375 10.67578125 C-11.79445663 4.18483476 -11.79445663 4.18483476 -10.27392578 1.75073242 C-7.11476374 -0.44891447 -3.71283191 -0.04359093 0 0 Z M0.71875 12.36328125 C2.89934833 19.2115402 2.89934833 19.2115402 6.71875 21.36328125 C10.13413144 21.94697568 10.13413144 21.94697568 13.71875 21.36328125 C17.44721224 18.44535428 18.55885827 17.00284815 19.71875 12.36328125 C13.44875 12.36328125 7.17875 12.36328125 0.71875 12.36328125 Z " fill="#000000" transform="translate(80.28125,281.63671875)"/>
<path d="M0 0 C2.9375 0.75 2.9375 0.75 4.9375 2.75 C5.44299721 4.21371993 5.89614599 5.69597299 6.3125 7.1875 C7.2070423 9.94198173 7.79924224 11.58705335 9.6875 13.8125 C13.03208851 15.20607855 15.35162371 15.25328088 18.9375 14.75 C24.03589826 11.15794668 25.38977522 6.52565589 26.9375 0.75 C30.11530914 -0.04445229 32.19719781 -0.52274291 35.3125 0.625 C37.54812403 3.54850834 37.49661695 5.72560249 37.3203125 9.33984375 C36.44320208 14.86205935 34.05693709 18.60512116 30.1875 22.5625 C24.2495279 26.55921199 18.22582935 28.95785872 10.9375 27.75 C3.36517606 25.58279315 -1.15191318 21.51459076 -5.203125 14.8828125 C-6.28237669 12.20430603 -6.36334731 10.00709968 -6.375 7.125 C-6.39175781 6.16335938 -6.40851563 5.20171875 -6.42578125 4.2109375 C-6.30589844 3.39882813 -6.18601562 2.58671875 -6.0625 1.75 C-3.0625 -0.25 -3.0625 -0.25 0 0 Z " fill="#000000" transform="translate(406.0625,282.25)"/>
<path d="M0 0 C1.051875 0.01160156 1.051875 0.01160156 2.125 0.0234375 C2.82625 0.01570312 3.5275 0.00796875 4.25 0 C6.125 0.3984375 6.125 0.3984375 8.125 3.3984375 C8.390625 5.7734375 8.390625 5.7734375 8.375 8.3984375 C8.38015625 9.2646875 8.3853125 10.1309375 8.390625 11.0234375 C8.125 13.3984375 8.125 13.3984375 6.125 16.3984375 C4.25 16.796875 4.25 16.796875 2.125 16.7734375 C1.42375 16.78117187 0.7225 16.78890625 0 16.796875 C-1.875 16.3984375 -1.875 16.3984375 -3.875 13.3984375 C-4.140625 11.0234375 -4.140625 11.0234375 -4.125 8.3984375 C-4.13015625 7.5321875 -4.1353125 6.6659375 -4.140625 5.7734375 C-3.80510869 2.77352701 -3.18095584 0.67595312 0 0 Z " fill="#000000" transform="translate(109.875,255.6015625)"/>
<path d="M0 0 C2.875 0.9375 2.875 0.9375 4.875 3.9375 C5.45097403 7.99923896 5.40599197 11.7280183 3.75 15.5 C1.875 16.9375 1.875 16.9375 -1.125 17.375 C-4.46385607 16.88808349 -5.15055209 16.56242201 -7.125 13.9375 C-7.97003593 9.37735115 -7.91550709 5.24487712 -5.5 1.25 C-3.125 -0.0625 -3.125 -0.0625 0 0 Z " fill="#000000" transform="translate(401.125,250.0625)"/>
<path d="M0 0 C2.9375 0.75 2.9375 0.75 4.9375 2.75 C5.23828125 5.24609375 5.23828125 5.24609375 5.25 8.1875 C5.27513672 9.63962891 5.27513672 9.63962891 5.30078125 11.12109375 C4.9375 13.75 4.9375 13.75 3.609375 15.578125 C1.04798124 17.37349446 -1.02821126 17.07279667 -4.0625 16.75 C-6.85029879 13.96220121 -6.36211733 12.13197673 -6.375 8.25 C-6.39175781 7.0846875 -6.40851563 5.919375 -6.42578125 4.71875 C-6.30589844 3.7390625 -6.18601562 2.759375 -6.0625 1.75 C-3.0625 -0.25 -3.0625 -0.25 0 0 Z " fill="#000000" transform="translate(438.0625,250.25)"/>
<path d="M0 0 C3.5 0.25 3.5 0.25 5.5 2.25 C5.765625 5 5.765625 5 5.75 8.25 C5.75515625 9.3225 5.7603125 10.395 5.765625 11.5 C5.5 14.25 5.5 14.25 3.5 16.25 C0 16.5 0 16.5 -3.5 16.25 C-5.5 14.25 -5.5 14.25 -5.765625 11.5 C-5.76046875 10.4275 -5.7553125 9.355 -5.75 8.25 C-5.75515625 7.1775 -5.7603125 6.105 -5.765625 5 C-5.34990948 0.69612172 -4.23390495 0.30242178 0 0 Z " fill="#000000" transform="translate(69.5,255.75)"/>
</svg>
